<svg width="36" height="36" viewBox="0 0 36 36" fill="none" xmlns="http://www.w3.org/2000/svg">
<path d="M31.7642 9.02813L23.1178 0.377679C22.8767 0.136607 22.5473 0 22.2058 0H5.14192C4.43075 0 3.8562 0.574554 3.8562 1.28571V34.7143C3.8562 35.4254 4.43075 36 5.14192 36H30.8562C31.5674 36 32.1419 35.4254 32.1419 34.7143V9.93616C32.1419 9.59464 32.0053 9.2692 31.7642 9.02813ZM29.1767 10.5268H21.6151V2.96518L29.1767 10.5268ZM29.2491 33.1071H6.74906V2.89286H18.883V11.5714C18.883 12.019 19.0608 12.4482 19.3772 12.7647C19.6937 13.0811 20.1229 13.2589 20.5705 13.2589H29.2491V33.1071ZM13.5794 19.4866C13.5794 19.7036 13.7562 19.8683 13.9732 19.8683H15.275C15.4919 19.8683 15.6687 19.6996 15.6687 19.4906C15.6687 18.3576 16.7053 17.4174 17.9991 17.4174C19.2928 17.4174 20.3294 18.3576 20.3294 19.4866C20.3294 20.5031 19.4857 21.383 18.3486 21.5317C17.5732 21.6442 16.9625 22.3473 16.9544 23.1429V24.4286C16.9544 24.6496 17.1352 24.8304 17.3562 24.8304H18.6419C18.8629 24.8304 19.0437 24.6496 19.0437 24.4286V23.9384C19.0437 23.6973 19.2044 23.4763 19.4334 23.404C21.2254 22.8254 22.4468 21.2344 22.4187 19.4304C22.3866 17.2004 20.4419 15.3804 18.0593 15.3482C15.5924 15.3201 13.5794 17.1804 13.5794 19.4866ZM16.7133 27.3214C16.7133 27.6624 16.8488 27.9894 17.0899 28.2306C17.331 28.4717 17.6581 28.6071 17.9991 28.6071C18.3401 28.6071 18.6671 28.4717 18.9082 28.2306C19.1493 27.9894 19.2848 27.6624 19.2848 27.3214C19.2848 26.9804 19.1493 26.6534 18.9082 26.4123C18.6671 26.1712 18.3401 26.0357 17.9991 26.0357C17.6581 26.0357 17.331 26.1712 17.0899 26.4123C16.8488 26.6534 16.7133 26.9804 16.7133 27.3214Z" fill="white"/>
</svg>
