<svg width="36" height="36" viewBox="0 0 36 36" fill="none" xmlns="http://www.w3.org/2000/svg">
<path d="M34.5143 8.81571C33.9758 7.56872 33.1992 6.4387 32.2282 5.48892C31.2564 4.53631 30.1106 3.77929 28.8532 3.25901C27.5493 2.71738 26.1508 2.44014 24.7389 2.44339C22.7581 2.44339 20.8255 2.9858 19.146 4.01035C18.7442 4.25544 18.3626 4.52464 18.0009 4.81794C17.6393 4.52464 17.2576 4.25544 16.8559 4.01035C15.1764 2.9858 13.2438 2.44339 11.263 2.44339C9.83666 2.44339 8.45451 2.7166 7.14871 3.25901C5.8871 3.78133 4.75005 4.53267 3.77371 5.48892C2.80137 6.43763 2.02465 7.56791 1.48755 8.81571C0.929067 10.1135 0.643799 11.4916 0.643799 12.9099C0.643799 14.2479 0.917013 15.642 1.45942 17.0604C1.91344 18.2456 2.56433 19.4751 3.39603 20.7166C4.71389 22.6813 6.52594 24.7304 8.77594 26.8077C12.5045 30.251 16.1969 32.6296 16.3536 32.726L17.3059 33.3367C17.7277 33.6059 18.2701 33.6059 18.692 33.3367L19.6442 32.726C19.8009 32.6255 23.4893 30.251 27.2219 26.8077C29.4719 24.7304 31.284 22.6813 32.6018 20.7166C33.4335 19.4751 34.0884 18.2456 34.5384 17.0604C35.0809 15.642 35.3541 14.2479 35.3541 12.9099C35.3581 11.4916 35.0728 10.1135 34.5143 8.81571V8.81571ZM18.0009 30.1586C18.0009 30.1586 3.69737 20.9938 3.69737 12.9099C3.69737 8.81571 7.08442 5.49696 11.263 5.49696C14.2 5.49696 16.7474 7.13624 18.0009 9.53089C19.2545 7.13624 21.8018 5.49696 24.7389 5.49696C28.9175 5.49696 32.3045 8.81571 32.3045 12.9099C32.3045 20.9938 18.0009 30.1586 18.0009 30.1586Z" fill="#FA4549"/>
</svg>
