<svg width="36" height="36" viewBox="0 0 36 36" fill="none" xmlns="http://www.w3.org/2000/svg">
<path d="M21.2155 4.50448L21.2155 32.4648C21.2155 32.6415 21.3602 32.7862 21.537 32.7862L23.9477 32.7862C24.1245 32.7862 24.2691 32.6415 24.2691 32.4648L24.2691 8.14868L31.6218 13.9464C31.8307 14.1112 32.1441 13.9625 32.1441 13.6933L32.1441 10.7804C32.1441 10.5835 32.0557 10.3987 31.899 10.2741L23.2968 3.49198C22.453 2.82903 21.2155 3.42769 21.2155 4.50448V4.50448ZM11.7334 3.53618L11.7334 27.8523L4.38072 22.0545C4.17179 21.8898 3.8584 22.0384 3.8584 22.3076L3.8584 25.2206C3.8584 25.4174 3.94679 25.6023 4.10349 25.7268L12.7057 32.5089C13.5495 33.1719 14.787 32.5732 14.787 31.5005L14.787 3.53618C14.787 3.35939 14.6423 3.21475 14.4655 3.21475L12.0548 3.21475C11.878 3.21475 11.7334 3.35939 11.7334 3.53618Z" fill="white"/>
</svg>
